<svg width="181" height="181" viewBox="0 0 181 181" fill="none" xmlns="http://www.w3.org/2000/svg">
<path d="M90.5 180.5C140.206 180.5 180.5 140.206 180.5 90.5C180.5 40.7944 140.206 0.5 90.5 0.5C40.7944 0.5 0.5 40.7944 0.5 90.5C0.5 140.206 40.7944 180.5 90.5 180.5Z" fill="#57300D" stroke="black"/>
<path d="M45.0738 145.302L30.8524 131.087V78.6948V26.3031L44.8101 40.2589L58.7678 54.2148H90.516H122.264L136.222 40.2589L150.18 26.3031V78.8229V131.343L136.09 145.431L122 159.519L90.6473 159.518L59.2951 159.517L45.0738 145.302Z" fill="#E77F23"/>
<path d="M68.3461 99C75.1646 99 80.6921 95.6421 80.6921 91.5C80.6921 87.3579 75.1646 84 68.3461 84C61.5275 84 56 87.3579 56 91.5C56 95.6421 61.5275 99 68.3461 99Z" fill="black" stroke="black" stroke-width="0.30787"/>
<path d="M101.194 135.632H72.5765V138.632H101.194V135.632Z" fill="black" stroke="black" stroke-width="0.258412"/>
<path d="M124.567 85.6414L100.641 92.0521L101.358 94.7268L125.283 88.3161L124.567 85.6414Z" fill="black" stroke="black" stroke-width="0.230972"/>
<path d="M108.165 131.016L99.6384 135.939L101.194 138.632L109.72 133.709L108.165 131.016Z" fill="black" stroke="black" stroke-width="0.154334"/>
<path d="M30.651 25.6506L30.5198 131.397H30.7833L30.651 25.6506C39.872 35.1383 49.7183 44.5179 58.8457 54.07L122.158 54.0684L150.153 26.2511L150.217 131.546L122.009 159.754L59.2751 159.75L31.0334 131.508L30.8474 131.695L59.1268 159.977C81.0452 160.061 103.522 160.025 122.158 159.981L150.35 131.602V25.6512L122.01 53.8045H58.9919L30.651 25.6506Z" fill="black"/>
<path d="M30.651 25.6506L30.5198 131.397H30.7833L30.651 25.6506ZM30.651 25.6506C39.872 35.1383 49.7183 44.5179 58.8457 54.07L122.158 54.0684L150.153 26.2511L150.217 131.546L122.009 159.754L59.2751 159.75L31.0334 131.508L30.8474 131.695L59.1268 159.977C81.0452 160.061 103.522 160.025 122.158 159.981L150.35 131.602V25.6512L122.01 53.8045H58.9919L30.651 25.6506Z" stroke="black"/>
<path d="M73.4623 110.671H107.643L90.5571 125.307L73.4623 110.671Z" fill="black" stroke="black" stroke-width="0.341714"/>
</svg>
